<svg width="22" height="22" viewBox="0 0 22 22" fill="none" xmlns="http://www.w3.org/2000/svg">
<g clip-path="url(#clip0)">
<path d="M21.7279 6.32127C21.6783 5.19572 21.4963 4.42192 21.2355 3.7514C20.9665 3.03967 20.5527 2.40246 20.0106 1.87274C19.4808 1.33477 18.8394 0.916755 18.1359 0.651976C17.4615 0.391239 16.6918 0.209224 15.5662 0.159598C14.4323 0.10577 14.0723 0.0933228 11.1963 0.0933228C8.32023 0.0933228 7.96024 0.10577 6.83048 0.155395C5.70493 0.205021 4.93113 0.387198 4.26078 0.647773C3.54888 0.916755 2.91167 1.33057 2.38195 1.87274C1.84399 2.40246 1.42613 3.04387 1.16119 3.74736C0.900455 4.42192 0.71844 5.19152 0.668814 6.31707C0.614986 7.45103 0.602539 7.81102 0.602539 10.687C0.602539 13.5631 0.614986 13.9231 0.664612 15.0528C0.714237 16.1784 0.896414 16.9522 1.15715 17.6227C1.42613 18.3344 1.84399 18.9716 2.38195 19.5014C2.91167 20.0393 3.55309 20.4573 4.25658 20.7221C4.93113 20.9829 5.70073 21.1649 6.82644 21.2145C7.95603 21.2643 8.31618 21.2766 11.1922 21.2766C14.0682 21.2766 14.4282 21.2643 15.558 21.2145C16.6835 21.1649 17.4573 20.9829 18.1277 20.7221C19.5513 20.1717 20.6769 19.0462 21.2273 17.6227C21.4879 16.9481 21.67 16.1784 21.7197 15.0528C21.7693 13.9231 21.7817 13.5631 21.7817 10.687C21.7817 7.81102 21.7775 7.45103 21.7279 6.32127ZM19.8203 14.9701C19.7747 16.0046 19.6009 16.5633 19.4561 16.9357C19.1002 17.8585 18.3677 18.591 17.4449 18.9469C17.0725 19.0917 16.5098 19.2655 15.4793 19.3109C14.362 19.3607 14.0269 19.373 11.2005 19.373C8.37405 19.373 8.03476 19.3607 6.92149 19.3109C5.88695 19.2655 5.3283 19.0917 4.95586 18.9469C4.49662 18.7772 4.0786 18.5082 3.7393 18.1565C3.38756 17.813 3.11858 17.3991 2.94885 16.9399C2.80401 16.5675 2.63024 16.0046 2.58482 14.9743C2.53503 13.857 2.52275 13.5217 2.52275 10.6953C2.52275 7.86889 2.53503 7.52959 2.58482 6.41648C2.63024 5.38194 2.80401 4.82329 2.94885 4.45085C3.11858 3.99145 3.38756 3.57359 3.74351 3.23413C4.08685 2.88239 4.50066 2.61341 4.96006 2.44384C5.3325 2.299 5.89536 2.12523 6.92569 2.07965C8.043 2.03002 8.37826 2.01757 11.2045 2.01757C14.0351 2.01757 14.3702 2.03002 15.4835 2.07965C16.518 2.12523 17.0767 2.299 17.4491 2.44384C17.9083 2.61341 18.3264 2.88239 18.6656 3.23413C19.0174 3.57763 19.2864 3.99145 19.4561 4.45085C19.6009 4.82329 19.7747 5.38598 19.8203 6.41648C19.8699 7.53379 19.8824 7.86889 19.8824 10.6953C19.8824 13.5217 19.8699 13.8527 19.8203 14.9701Z" fill="#AFB1B8"/>
<path d="M11.1966 5.24532C8.19236 5.24532 5.75488 7.68263 5.75488 10.687C5.75488 13.6914 8.19236 16.1287 11.1966 16.1287C14.201 16.1287 16.6383 13.6914 16.6383 10.687C16.6383 7.68263 14.201 5.24532 11.1966 5.24532ZM11.1966 14.2169C9.2476 14.2169 7.66669 12.6362 7.66669 10.687C7.66669 8.73787 9.2476 7.15712 11.1966 7.15712C13.1457 7.15712 14.7265 8.73787 14.7265 10.687C14.7265 12.6362 13.1457 14.2169 11.1966 14.2169Z" fill="#AFB1B8"/>
<path d="M18.124 5.03019C18.124 5.73174 17.5551 6.30058 16.8534 6.30058C16.1518 6.30058 15.583 5.73174 15.583 5.03019C15.583 4.32847 16.1518 3.7598 16.8534 3.7598C17.5551 3.7598 18.124 4.32847 18.124 5.03019Z" fill="#AFB1B8"/>
</g>
<defs>
<clipPath id="clip0">
<rect width="21.1833" height="21.1833" fill="white" transform="translate(0.56543 0.093338)"/>
</clipPath>
</defs>
</svg>
