<svg width="22" height="22" viewBox="0 0 22 22" fill="none" xmlns="http://www.w3.org/2000/svg">
<g clip-path="url(#clip0)">
<path d="M21.3284 21.2767V21.2758H21.3337V13.5068C21.3337 9.70618 20.5155 6.77847 16.0723 6.77847C13.9363 6.77847 12.5029 7.95062 11.9177 9.06186H11.8559V7.13329H7.64307V21.2758H12.0298V14.273C12.0298 12.4291 12.3793 10.6462 14.6627 10.6462C16.9125 10.6462 16.9461 12.7504 16.9461 14.3912V21.2767H21.3284Z" fill="#AFB1B8"/>
<path d="M0.5 7.13409H4.89201V21.2766H0.5V7.13409Z" fill="#AFB1B8"/>
<path d="M2.69415 0.0933533C1.28988 0.0933533 0.150391 1.23284 0.150391 2.63712C0.150391 4.04139 1.28988 5.20471 2.69415 5.20471C4.09843 5.20471 5.23792 4.04139 5.23792 2.63712C5.23703 1.23284 4.09755 0.0933533 2.69415 0.0933533V0.0933533Z" fill="#AFB1B8"/>
</g>
<defs>
<clipPath id="clip0">
<rect width="21.1833" height="21.1833" fill="white" transform="translate(0.150391 0.0933533)"/>
</clipPath>
</defs>
</svg>
