<svg width="22" height="22" viewBox="0 0 22 22" fill="none" xmlns="http://www.w3.org/2000/svg">
<g clip-path="url(#clip0)">
<path d="M21.9436 4.11684C21.1558 4.46239 20.3164 4.69144 19.4413 4.80265C20.3416 4.26512 21.0287 3.42044 21.3518 2.40231C20.5124 2.90277 19.5856 3.25627 18.5979 3.45354C17.8009 2.60488 16.6649 2.07927 15.4257 2.07927C13.0214 2.07927 11.0858 4.03078 11.0858 6.42317C11.0858 6.7674 11.1149 7.09839 11.1864 7.41349C7.57598 7.2374 4.38128 5.50699 2.23514 2.871C1.86046 3.52106 1.64069 4.26512 1.64069 5.06612C1.64069 6.57013 2.4152 7.90336 3.56969 8.67522C2.87197 8.66198 2.18748 8.45942 1.60759 8.14034C1.60759 8.15358 1.60759 8.17079 1.60759 8.18801C1.60759 10.2984 3.11293 12.0513 5.08695 12.4551C4.73345 12.5518 4.34818 12.5981 3.94834 12.5981C3.67031 12.5981 3.38963 12.5822 3.12616 12.524C3.68885 14.2438 5.28554 15.5082 7.18409 15.5492C5.70656 16.705 3.83051 17.4014 1.79956 17.4014C1.44342 17.4014 1.10183 17.3855 0.760254 17.3418C2.68396 18.5824 4.96382 19.2907 7.42241 19.2907C15.4138 19.2907 19.7829 12.6709 19.7829 6.9329C19.7829 6.74092 19.7762 6.55557 19.767 6.37154C20.6289 5.75987 21.3531 4.99595 21.9436 4.11684Z" fill="#AFB1B8"/>
</g>
<defs>
<clipPath id="clip0">
<rect width="21.1833" height="21.1833" fill="white" transform="translate(0.760254 0.0933533)"/>
</clipPath>
</defs>
</svg>
